<svg width="200" height="200" viewBox="0 0 200 200" fill="none" xmlns="http://www.w3.org/2000/svg">
<g clip-path="url(#clip0_4017_834)">
<path d="M37 141L48.8591 167.354C50.0185 169.93 50.0339 172.877 48.9014 175.465L40.0401 195.72H64.36" stroke="#BC72C9" stroke-width="9.12"/>
<path d="M77 141L88.8591 167.354C90.0185 169.93 90.0339 172.877 88.9014 175.465L80.0401 195.72H104.36" stroke="#BC72C9" stroke-width="9.12"/>
<path d="M16.4999 86.1543C29.7185 60.5902 61.4533 51.4853 86.1132 65.7227C89.166 67.4852 91.9417 69.5228 94.4745 71.7754C101.937 78.4945 110.949 83.1461 120.859 84.5996C134.607 86.6252 149.324 88.2807 165.34 88.916L168 110C151.145 113.188 143.435 114.745 128 118.359C118.575 120.584 104.29 136.366 97.6405 143.434L97.5721 143.553C81.539 160.576 55.0737 164.661 34.2421 151.527C12.5259 137.804 4.67335 108.966 16.4999 86.1543Z" fill="url(#paint0_linear_4017_834)"/>
<circle cx="61.1053" cy="99.1053" r="10.1053" fill="white"/>
<circle cx="86.8943" cy="99.1053" r="10.1053" fill="white"/>
</g>
<defs>
<linearGradient id="paint0_linear_4017_834" x1="89.4999" y1="83.3096" x2="89.4999" y2="135.892" gradientUnits="userSpaceOnUse">
<stop stop-color="#FF78A7"/>
<stop offset="1" stop-color="#BC71C9"/>
</linearGradient>
<clipPath id="clip0_4017_834">
<rect width="200" height="200" fill="white"/>
</clipPath>
</defs>
</svg>
