<svg width="1028" height="508" viewBox="0 0 1028 508" fill="none" xmlns="http://www.w3.org/2000/svg">
<ellipse cx="511" cy="227" rx="250" ry="186" fill="url(#paint0_radial_4023_1239)"/>
<mask id="mask0_4023_1239" style="mask-type:alpha" maskUnits="userSpaceOnUse" x="460" y="171" width="46" height="53">
<path d="M466.313 214.761C467.11 214.576 467.939 214.532 468.754 214.582C470.626 214.695 472.378 215.08 473.737 215.502C475.325 215.994 477.051 216.715 478.579 217.644C479.569 218.246 480.378 219.109 480.913 220.137C481.621 221.492 482.886 222.561 484.548 222.958C487.005 223.545 489.608 222.334 490.752 220.079C491.896 217.824 491.379 215.352 489.811 213.72C488.993 212.868 488.424 211.817 488.023 210.709C486.546 206.613 485.432 202.046 484.586 197.451C483.976 194.151 483.187 190.313 482.837 187.128C482.771 186.528 483.517 186.206 483.921 186.656C487.082 190.185 490.014 194.75 492.016 198.921C492.555 200.05 492.756 201.308 492.583 202.55L492.576 202.566C492.161 205.559 493.894 208.554 496.903 209.587C500.044 210.661 503.583 209.116 504.921 206.078C506.423 202.677 504.769 198.745 501.339 197.416C500.914 197.251 500.484 197.137 500.052 197.064C498.771 196.857 497.573 196.327 496.624 195.447C493.04 192.128 488.849 187.304 485.599 180.672C485.051 179.554 484.796 178.326 484.79 177.082C484.769 174.171 482.451 171.49 478.937 171.551C477.194 171.583 475.585 172.529 474.649 174.002C472.919 176.717 473.693 179.578 475.95 181.6C476.942 182.492 477.672 183.642 478.027 184.928C479.161 189.028 479.8 193.756 480.725 198.297C481.65 203.156 482.42 206.565 482.479 211.212C482.496 212.503 481.33 213.479 480.059 213.248C478.323 212.931 476.508 212.327 475.073 211.771C473.993 211.353 472.593 210.682 471.243 209.785C470.311 209.167 469.538 208.346 468.838 207.473C468.262 206.757 467.465 206.206 466.491 205.942C464.462 205.389 462.253 206.354 461.283 208.221C460.014 210.665 461.173 213.599 463.667 214.565C464.545 214.905 465.462 214.952 466.315 214.756L466.313 214.761Z" fill="black"/>
<path d="M482.479 211.212C482.494 212.426 481.466 213.36 480.288 213.276C479.608 211.383 478.704 209.534 477.485 207.517C475.927 204.941 473.364 201.069 471.309 198.992C470.777 198.455 470.131 198.005 469.502 197.634C468.873 197.262 468.307 196.701 467.92 196.087C466.873 194.419 466.923 192.111 468.601 190.361C469.076 189.872 469.68 189.523 470.336 189.336C472.334 188.768 473.885 189.402 474.925 190.44C475.78 191.293 476.683 192.108 477.717 192.731C478.319 193.093 479.075 193.471 479.889 193.85C480.156 195.334 480.425 196.826 480.725 198.298C480.741 198.385 480.759 198.471 480.775 198.557C479.409 198.007 477.963 197.445 476.909 197.117C476.423 196.967 476.036 197.439 476.239 197.906C477.225 200.185 479.444 203.382 480.837 205.392C481.401 206.205 481.851 206.901 482.273 207.542C482.389 208.708 482.462 209.912 482.479 211.212ZM492.66 204.807C490.622 203.208 488.141 201.685 485.165 200.365C484.96 199.397 484.765 198.425 484.585 197.451C484.48 196.882 484.37 196.297 484.257 195.703C484.592 195.836 484.906 195.963 485.194 196.078C487.416 196.964 489.465 197.563 491.511 197.901C491.685 198.243 491.854 198.583 492.016 198.921C492.556 200.05 492.755 201.309 492.582 202.55L492.576 202.567C492.471 203.324 492.504 204.081 492.66 204.807Z" fill="url(#paint1_linear_4023_1239)"/>
</mask>
<g mask="url(#mask0_4023_1239)">
<rect x="517.049" y="183.554" width="50.6471" height="50.6471" transform="rotate(111.177 517.049 183.554)" fill="url(#paint2_linear_4023_1239)"/>
</g>
<mask id="mask1_4023_1239" style="mask-type:alpha" maskUnits="userSpaceOnUse" x="515" y="171" width="46" height="53">
<path d="M554.899 214.761C554.102 214.576 553.274 214.532 552.459 214.582C550.587 214.695 548.835 215.08 547.476 215.502C545.888 215.994 544.162 216.715 542.634 217.644C541.644 218.246 540.835 219.109 540.299 220.137C539.592 221.492 538.327 222.561 536.665 222.958C534.208 223.545 531.605 222.334 530.461 220.079C529.317 217.824 529.834 215.352 531.402 213.72C532.219 212.868 532.789 211.817 533.19 210.709C534.667 206.613 535.781 202.046 536.627 197.451C537.236 194.151 538.026 190.313 538.376 187.128C538.442 186.528 537.696 186.206 537.292 186.656C534.13 190.185 531.199 194.75 529.197 198.921C528.657 200.05 528.457 201.308 528.63 202.55L528.637 202.566C529.051 205.559 527.319 208.554 524.31 209.587C521.169 210.661 517.63 209.116 516.292 206.078C514.79 202.677 516.444 198.745 519.874 197.416C520.299 197.251 520.729 197.137 521.161 197.064C522.441 196.857 523.64 196.327 524.589 195.447C528.173 192.128 532.364 187.304 535.614 180.672C536.162 179.554 536.417 178.326 536.423 177.082C536.443 174.172 538.762 171.49 542.276 171.552C544.019 171.583 545.628 172.529 546.564 174.002C548.294 176.717 547.52 179.578 545.263 181.6C544.271 182.492 543.541 183.642 543.185 184.928C542.052 189.028 541.413 193.757 540.488 198.297C539.563 203.156 538.793 206.565 538.734 211.212C538.717 212.503 539.883 213.479 541.154 213.248C542.89 212.931 544.705 212.327 546.14 211.771C547.22 211.353 548.62 210.682 549.97 209.785C550.902 209.167 551.675 208.347 552.375 207.473C552.951 206.757 553.748 206.206 554.722 205.943C556.751 205.389 558.96 206.354 559.93 208.221C561.199 210.665 560.04 213.599 557.546 214.565C556.667 214.905 555.751 214.952 554.898 214.756L554.899 214.761Z" fill="black"/>
<path d="M538.734 211.212C538.719 212.426 539.746 213.36 540.925 213.276C541.605 211.383 542.509 209.534 543.728 207.517C545.286 204.941 547.849 201.069 549.904 198.992C550.435 198.455 551.082 198.005 551.711 197.634C552.34 197.262 552.905 196.702 553.293 196.087C554.34 194.42 554.29 192.111 552.611 190.361C552.137 189.872 551.532 189.523 550.877 189.336C548.879 188.768 547.327 189.402 546.288 190.44C545.433 191.293 544.53 192.108 543.496 192.731C542.894 193.093 542.138 193.471 541.323 193.85C541.057 195.334 540.788 196.826 540.488 198.298C540.472 198.385 540.454 198.471 540.437 198.557C541.804 198.007 543.25 197.445 544.304 197.117C544.79 196.967 545.177 197.439 544.974 197.906C543.988 200.185 541.769 203.382 540.376 205.392C539.812 206.205 539.362 206.901 538.94 207.542C538.824 208.708 538.75 209.912 538.734 211.212ZM528.553 204.807C530.591 203.209 533.072 201.685 536.048 200.365C536.253 199.398 536.448 198.425 536.627 197.451C536.732 196.882 536.843 196.297 536.956 195.703C536.621 195.836 536.306 195.963 536.019 196.078C533.797 196.964 531.748 197.563 529.702 197.901C529.528 198.243 529.359 198.583 529.197 198.921C528.657 200.05 528.458 201.309 528.631 202.55L528.637 202.567C528.742 203.324 528.709 204.081 528.553 204.807Z" fill="url(#paint3_linear_4023_1239)"/>
</mask>
<g mask="url(#mask1_4023_1239)">
<rect width="50.6471" height="50.6471" transform="matrix(0.361246 0.93247 0.93247 -0.361246 504.164 183.554)" fill="url(#paint4_linear_4023_1239)"/>
</g>
<mask id="mask2_4023_1239" style="mask-type:alpha" maskUnits="userSpaceOnUse" x="515" y="231" width="46" height="52">
<path d="M554.899 239.55C554.102 239.734 553.274 239.779 552.459 239.728C550.587 239.615 548.835 239.23 547.476 238.808C545.888 238.316 544.162 237.595 542.634 236.667C541.644 236.065 540.835 235.202 540.299 234.174C539.592 232.818 538.327 231.75 536.665 231.352C534.208 230.766 531.605 231.976 530.461 234.232C529.317 236.487 529.834 238.958 531.402 240.59C532.219 241.443 532.789 242.493 533.19 243.602C534.667 247.697 535.781 252.264 536.627 256.86C537.236 260.159 538.026 263.998 538.376 267.183C538.442 267.782 537.696 268.105 537.292 267.654C534.13 264.125 531.199 259.561 529.197 255.39C528.657 254.261 528.457 253.002 528.63 251.761L528.637 251.744C529.051 248.751 527.319 245.756 524.31 244.723C521.169 243.649 517.63 245.194 516.292 248.233C514.79 251.634 516.444 255.566 519.874 256.895C520.299 257.059 520.729 257.174 521.161 257.246C522.441 257.453 523.64 257.984 524.589 258.863C528.173 262.182 532.364 267.007 535.614 273.639C536.162 274.757 536.417 275.984 536.423 277.229C536.443 280.139 538.762 282.82 542.276 282.759C544.019 282.728 545.628 281.781 546.564 280.309C548.294 277.593 547.52 274.732 545.263 272.71C544.271 271.819 543.541 270.668 543.185 269.383C542.052 265.283 541.413 260.554 540.488 256.013C539.563 251.154 538.793 247.745 538.734 243.099C538.717 241.807 539.883 240.831 541.154 241.063C542.89 241.38 544.705 241.983 546.14 242.539C547.22 242.958 548.62 243.628 549.97 244.526C550.902 245.143 551.675 245.964 552.375 246.837C552.951 247.554 553.748 248.104 554.722 248.368C556.751 248.921 558.96 247.956 559.93 246.089C561.199 243.645 560.04 240.712 557.546 239.745C556.667 239.405 555.751 239.358 554.898 239.554L554.899 239.55Z" fill="black"/>
<path d="M538.734 243.098C538.719 241.885 539.746 240.951 540.925 241.035C541.605 242.927 542.509 244.776 543.728 246.793C545.286 249.37 547.849 253.242 549.904 255.318C550.435 255.856 551.082 256.305 551.711 256.677C552.34 257.048 552.905 257.609 553.293 258.224C554.34 259.891 554.29 262.2 552.611 263.949C552.137 264.439 551.532 264.788 550.877 264.975C548.879 265.543 547.327 264.908 546.288 263.871C545.433 263.018 544.53 262.203 543.496 261.579C542.894 261.217 542.138 260.839 541.323 260.46C541.057 258.976 540.788 257.484 540.488 256.012C540.472 255.926 540.454 255.84 540.437 255.754C541.804 256.304 543.25 256.865 544.304 257.193C544.79 257.343 545.177 256.872 544.974 256.404C543.988 254.126 541.769 250.928 540.376 248.919C539.812 248.105 539.362 247.409 538.94 246.768C538.824 245.602 538.75 244.399 538.734 243.098ZM528.553 249.503C530.591 251.102 533.072 252.626 536.048 253.946C536.253 254.913 536.448 255.885 536.627 256.859C536.732 257.428 536.843 258.013 536.956 258.608C536.621 258.474 536.306 258.347 536.019 258.232C533.797 257.347 531.748 256.747 529.702 256.409C529.528 256.067 529.359 255.727 529.197 255.389C528.657 254.26 528.458 253.002 528.631 251.76L528.637 251.744C528.742 250.986 528.709 250.229 528.553 249.503Z" fill="url(#paint5_linear_4023_1239)"/>
</mask>
<g mask="url(#mask2_4023_1239)">
<rect x="504.164" y="270.756" width="50.6471" height="50.6471" transform="rotate(-68.8232 504.164 270.756)" fill="url(#paint6_linear_4023_1239)"/>
</g>
<mask id="mask3_4023_1239" style="mask-type:alpha" maskUnits="userSpaceOnUse" x="460" y="231" width="46" height="52">
<path d="M466.313 239.55C467.11 239.734 467.939 239.779 468.754 239.728C470.626 239.615 472.378 239.23 473.737 238.808C475.325 238.316 477.051 237.595 478.579 236.667C479.569 236.065 480.378 235.202 480.913 234.174C481.621 232.818 482.886 231.75 484.548 231.352C487.005 230.766 489.608 231.976 490.752 234.232C491.896 236.487 491.379 238.958 489.811 240.59C488.993 241.443 488.424 242.493 488.023 243.602C486.546 247.697 485.432 252.264 484.586 256.86C483.976 260.159 483.187 263.998 482.837 267.183C482.771 267.782 483.517 268.105 483.921 267.654C487.082 264.125 490.014 259.561 492.016 255.39C492.555 254.261 492.756 253.002 492.583 251.761L492.576 251.744C492.161 248.751 493.894 245.756 496.903 244.723C500.044 243.649 503.583 245.194 504.921 248.233C506.423 251.634 504.769 255.566 501.339 256.895C500.914 257.059 500.484 257.174 500.052 257.246C498.771 257.453 497.573 257.984 496.624 258.863C493.04 262.182 488.849 267.007 485.599 273.639C485.051 274.757 484.796 275.984 484.79 277.229C484.769 280.139 482.451 282.82 478.937 282.759C477.194 282.728 475.585 281.781 474.649 280.309C472.919 277.593 473.693 274.732 475.95 272.71C476.942 271.819 477.672 270.668 478.027 269.383C479.161 265.283 479.8 260.554 480.725 256.013C481.65 251.154 482.42 247.745 482.479 243.099C482.496 241.807 481.33 240.831 480.059 241.063C478.323 241.38 476.508 241.983 475.073 242.539C473.993 242.958 472.593 243.628 471.243 244.526C470.311 245.143 469.538 245.964 468.838 246.837C468.262 247.554 467.465 248.104 466.491 248.368C464.462 248.921 462.253 247.956 461.283 246.089C460.014 243.645 461.173 240.712 463.667 239.745C464.545 239.405 465.462 239.358 466.315 239.554L466.313 239.55Z" fill="black"/>
<path d="M482.479 243.098C482.494 241.885 481.466 240.951 480.288 241.035C479.608 242.927 478.704 244.776 477.485 246.793C475.927 249.37 473.364 253.242 471.309 255.318C470.777 255.856 470.131 256.305 469.502 256.677C468.873 257.048 468.307 257.609 467.92 258.224C466.873 259.891 466.923 262.2 468.601 263.949C469.076 264.439 469.68 264.788 470.336 264.975C472.334 265.543 473.885 264.908 474.925 263.871C475.78 263.018 476.683 262.203 477.717 261.579C478.319 261.217 479.075 260.839 479.889 260.46C480.156 258.976 480.425 257.484 480.725 256.012C480.741 255.926 480.759 255.84 480.775 255.754C479.409 256.304 477.963 256.865 476.909 257.193C476.423 257.343 476.036 256.872 476.239 256.404C477.225 254.126 479.444 250.928 480.837 248.919C481.401 248.105 481.851 247.409 482.273 246.768C482.389 245.602 482.462 244.399 482.479 243.098ZM492.66 249.503C490.622 251.102 488.141 252.626 485.165 253.946C484.96 254.913 484.765 255.885 484.585 256.859C484.48 257.428 484.37 258.013 484.257 258.608C484.592 258.474 484.906 258.347 485.194 258.232C487.416 257.347 489.465 256.747 491.511 256.409C491.685 256.067 491.854 255.727 492.016 255.389C492.556 254.26 492.755 253.002 492.582 251.76L492.576 251.744C492.471 250.986 492.504 250.229 492.66 249.503Z" fill="url(#paint7_linear_4023_1239)"/>
</mask>
<g mask="url(#mask3_4023_1239)">
<rect width="50.6471" height="50.6471" transform="matrix(-0.361246 -0.93247 -0.93247 0.361246 517.049 270.756)" fill="url(#paint8_linear_4023_1239)"/>
</g>
<circle cx="510.341" cy="227.342" r="10.3472" fill="#FF79A8"/>
<path d="M439 226.525H581.683V228.158H439V226.525Z" fill="url(#paint9_radial_4023_1239)"/>
<path d="M509.525 298.683L509.525 156L511.158 156L511.158 298.683H509.525Z" fill="url(#paint10_radial_4023_1239)"/>
<defs>
<radialGradient id="paint0_radial_4023_1239" cx="0" cy="0" r="1" gradientUnits="userSpaceOnUse" gradientTransform="translate(511 227) rotate(90) scale(186 250)">
<stop offset="0.293269" stop-color="white"/>
<stop offset="1" stop-color="#E3BDE9" stop-opacity="0"/>
</radialGradient>
<linearGradient id="paint1_linear_4023_1239" x1="466.776" y1="196.489" x2="486.265" y2="213.415" gradientUnits="userSpaceOnUse">
<stop stop-opacity="0.7"/>
<stop offset="1" stop-opacity="0.3"/>
</linearGradient>
<linearGradient id="paint2_linear_4023_1239" x1="542.372" y1="195.83" x2="542.372" y2="222.382" gradientUnits="userSpaceOnUse">
<stop stop-color="#FF78A7"/>
<stop offset="1" stop-color="#BC71C9"/>
</linearGradient>
<linearGradient id="paint3_linear_4023_1239" x1="554.437" y1="196.489" x2="534.948" y2="213.415" gradientUnits="userSpaceOnUse">
<stop stop-opacity="0.7"/>
<stop offset="1" stop-opacity="0.3"/>
</linearGradient>
<linearGradient id="paint4_linear_4023_1239" x1="25.3235" y1="12.2757" x2="25.3235" y2="38.828" gradientUnits="userSpaceOnUse">
<stop stop-color="#FF78A7"/>
<stop offset="1" stop-color="#BC71C9"/>
</linearGradient>
<linearGradient id="paint5_linear_4023_1239" x1="554.437" y1="257.822" x2="534.948" y2="240.895" gradientUnits="userSpaceOnUse">
<stop stop-opacity="0.7"/>
<stop offset="1" stop-opacity="0.3"/>
</linearGradient>
<linearGradient id="paint6_linear_4023_1239" x1="529.488" y1="283.032" x2="529.488" y2="309.584" gradientUnits="userSpaceOnUse">
<stop stop-color="#FF78A7"/>
<stop offset="1" stop-color="#BC71C9"/>
</linearGradient>
<linearGradient id="paint7_linear_4023_1239" x1="466.776" y1="257.822" x2="486.265" y2="240.895" gradientUnits="userSpaceOnUse">
<stop stop-opacity="0.7"/>
<stop offset="1" stop-opacity="0.3"/>
</linearGradient>
<linearGradient id="paint8_linear_4023_1239" x1="25.3235" y1="12.2757" x2="25.3235" y2="38.828" gradientUnits="userSpaceOnUse">
<stop stop-color="#FF78A7"/>
<stop offset="1" stop-color="#BC71C9"/>
</linearGradient>
<radialGradient id="paint9_radial_4023_1239" cx="0" cy="0" r="1" gradientUnits="userSpaceOnUse" gradientTransform="translate(510.342 227.342) rotate(90) scale(71.3416)">
<stop stop-color="#FF79A8"/>
<stop offset="1" stop-color="#FF79A8" stop-opacity="0"/>
</radialGradient>
<radialGradient id="paint10_radial_4023_1239" cx="0" cy="0" r="1" gradientUnits="userSpaceOnUse" gradientTransform="translate(510.342 227.342) rotate(90) scale(71.3416)">
<stop stop-color="#FF79A8"/>
<stop offset="1" stop-color="#FF79A8" stop-opacity="0"/>
</radialGradient>
</defs>
</svg>
