<svg width="200" height="200" viewBox="0 0 200 200" fill="none" xmlns="http://www.w3.org/2000/svg">
<path d="M90 155L105.044 159.715C112.789 162.143 114.568 172.299 108.11 177.215L90 191H112" stroke="#BC72C9" stroke-width="9.12"/>
<path d="M45 155L60.0442 159.715C67.789 162.143 69.5683 172.299 63.1102 177.215L45 191H67" stroke="#BC72C9" stroke-width="9.12"/>
<path d="M27.4999 102.154C40.7185 76.5902 72.4533 67.4853 97.1132 81.7227C100.166 83.4852 102.942 85.5228 105.474 87.7754C112.937 94.4945 121.949 99.1461 131.859 100.6C145.607 102.625 160.324 104.281 176.34 104.916L179 126C162.145 129.188 154.435 130.745 139 134.359C129.575 136.584 115.29 152.366 108.64 159.434L108.572 159.553C92.539 176.576 66.0737 180.661 45.2421 167.527C23.5259 153.804 15.6733 124.966 27.4999 102.154Z" fill="url(#paint0_linear_4020_857)"/>
<circle cx="72.1053" cy="115.105" r="10.1053" fill="white"/>
<circle cx="97.8943" cy="115.105" r="10.1053" fill="white"/>
<defs>
<linearGradient id="paint0_linear_4020_857" x1="100.5" y1="99.3096" x2="100.5" y2="151.892" gradientUnits="userSpaceOnUse">
<stop stop-color="#FF78A7"/>
<stop offset="1" stop-color="#BC71C9"/>
</linearGradient>
</defs>
</svg>
