<svg width="200" height="200" viewBox="0 0 200 200" fill="none" xmlns="http://www.w3.org/2000/svg">
<path d="M52 104L56.8252 138.741C56.9414 139.577 56.9512 140.424 56.8544 141.263L54.0002 166L75 175" stroke="#BC72C9" stroke-width="9.12"/>
<path d="M90 104L94.8252 138.741C94.9414 139.577 94.9512 140.424 94.8544 141.263L92.0002 166L113 175" stroke="#BC72C9" stroke-width="9.12"/>
<path d="M27.4999 51.1543C40.7185 25.5902 72.4533 16.4853 97.1132 30.7227C100.166 32.4852 102.942 34.5228 105.474 36.7754C112.937 43.4945 121.949 48.1461 131.859 49.5996C145.607 51.6252 160.324 53.2807 176.34 53.916L179 75.0001C162.145 78.1878 154.435 79.7449 139 83.3594C129.575 85.5843 115.29 101.366 108.64 108.434L108.572 108.553C92.539 125.576 66.0737 129.661 45.2421 116.527C23.5259 102.804 15.6733 73.9657 27.4999 51.1543Z" fill="url(#paint0_linear_4020_872)"/>
<circle cx="72.1053" cy="64.1053" r="10.1053" fill="white"/>
<circle cx="97.8943" cy="64.1053" r="10.1053" fill="white"/>
<defs>
<linearGradient id="paint0_linear_4020_872" x1="100.5" y1="48.3096" x2="100.5" y2="100.892" gradientUnits="userSpaceOnUse">
<stop stop-color="#FF78A7"/>
<stop offset="1" stop-color="#BC71C9"/>
</linearGradient>
</defs>
</svg>
