<svg width="121" height="121" viewBox="0 0 121 121" fill="none" xmlns="http://www.w3.org/2000/svg">
<rect x="27" y="48" width="68" height="43" fill="#340EA5"/>
<rect x="27" y="91" width="21" height="8" fill="#340EA5"/>
<rect x="74" y="91" width="21" height="8" fill="#340EA5"/>
<rect x="74" y="40" width="21" height="8" fill="#340EA5"/>
<rect x="27" y="22" width="16" height="8" fill="#340EA5"/>
<rect x="27" y="22" width="16" height="8" fill="#340EA5"/>
<rect x="43" y="27" width="10" height="13" fill="#340EA5"/>
<rect width="16" height="8" transform="matrix(-1 0 0 1 95 22)" fill="#340EA5"/>
<rect width="10" height="13" transform="matrix(-1 0 0 1 79 27)" fill="#340EA5"/>
<rect x="27" y="40" width="21" height="8" fill="#340EA5"/>
<rect x="39.4561" y="55.0357" width="16.7215" height="5.90169" transform="rotate(15 39.4561 55.0357)" fill="#F5F5F5"/>
<rect width="16.7215" height="5.90169" transform="matrix(0.965926 -0.258819 -0.258819 -0.965926 68.5986 65.0641)" fill="#F5F5F5"/>
<rect width="24" height="3" transform="matrix(1 0 0 -1 49 79)" fill="#F5F5F5"/>
</svg>
