<svg width="114" height="114" viewBox="0 0 114 114" fill="none" xmlns="http://www.w3.org/2000/svg">
<mask id="mask0_4023_1255" style="mask-type:alpha" maskUnits="userSpaceOnUse" x="17" y="13" width="37" height="41">
<path d="M22.1404 47.223C22.7698 47.0773 23.4238 47.0423 24.0675 47.082C25.5458 47.1716 26.9297 47.4755 28.0028 47.8088C29.2567 48.1972 30.6202 48.7667 31.8266 49.5C32.6087 49.9752 33.2471 50.657 33.6704 51.4688C34.2294 52.5392 35.2282 53.3831 36.5409 53.6969C38.4811 54.1602 40.5368 53.2039 41.4402 51.423C42.3436 49.6421 41.9352 47.69 40.6967 46.4013C40.0513 45.7281 39.6012 44.8984 39.285 44.0231C38.1187 40.7888 37.2389 37.1823 36.5703 33.5528C36.0893 30.9472 35.4661 27.9158 35.1896 25.4006C35.1371 24.9272 35.7264 24.6724 36.0455 25.0281C38.5421 27.8154 40.857 31.4198 42.4383 34.7139C42.8644 35.6054 43.0224 36.5992 42.8859 37.5799L42.8808 37.5929C42.5532 39.9564 43.9214 42.3215 46.2979 43.1373C48.778 43.9858 51.5727 42.7653 52.6295 40.366C53.8162 37.6799 52.51 34.5749 49.8007 33.5253C49.4654 33.3954 49.1259 33.305 48.7848 33.2478C47.7733 33.0844 46.8271 32.6654 46.0776 31.9706C43.2469 29.3497 39.9369 25.5395 37.3707 20.3023C36.9376 19.4193 36.7364 18.45 36.7315 17.4669C36.7155 15.1688 34.8844 13.0513 32.1094 13.0997C30.7329 13.1245 29.4622 13.8718 28.7232 15.0348C27.3569 17.1794 27.9684 19.4386 29.7504 21.0352C30.5337 21.7394 31.1104 22.6481 31.3912 23.6632C32.2864 26.9011 32.7908 30.6356 33.5212 34.2216C34.2518 38.0586 34.8602 40.751 34.9067 44.4204C34.9198 45.4403 33.9995 46.2111 32.9956 46.0281C31.6245 45.7778 30.1913 45.3012 29.0582 44.8622C28.205 44.5317 27.0994 44.0023 26.0333 43.2934C25.2971 42.806 24.687 42.1576 24.134 41.4678C23.6791 40.9021 23.0499 40.4673 22.2804 40.2591C20.6784 39.822 18.9338 40.5842 18.1678 42.0588C17.1655 43.9887 18.0805 46.3055 20.0505 47.0687C20.7441 47.3374 21.4676 47.3743 22.1417 47.2197L22.1404 47.223Z" fill="black"/>
<path d="M34.9064 44.4211C34.9183 45.379 34.1069 46.1165 33.1764 46.0508C32.6393 44.5558 31.9254 43.0959 30.9629 41.5026C29.7327 39.4682 27.7076 36.4111 26.0847 34.7712C25.6651 34.3464 25.1541 33.9912 24.6574 33.6977C24.1608 33.4042 23.7143 32.961 23.4081 32.4754C22.5815 31.1589 22.6216 29.3359 23.9468 27.9545C24.3212 27.5679 24.7986 27.2922 25.3163 27.1445C26.8944 26.6961 28.1204 27.197 28.9412 28.0169C29.6164 28.6902 30.3292 29.3337 31.1456 29.826C31.6206 30.1117 32.2169 30.4118 32.8605 30.7113C33.0707 31.8824 33.284 33.0601 33.5206 34.222C33.5337 34.2905 33.548 34.3584 33.5609 34.4261C32.4817 33.9918 31.3403 33.5487 30.5085 33.2897C30.1239 33.1707 29.8178 33.5434 29.9781 33.9126C30.7565 35.7121 32.5091 38.2366 33.6094 39.8238C34.0534 40.4641 34.411 41.0109 34.7438 41.5158C34.8356 42.4384 34.8933 43.3916 34.9064 44.4211ZM42.9465 39.3629C41.3368 38.1004 39.3774 36.8971 37.0269 35.8548C36.8655 35.0906 36.7116 34.3224 36.5699 33.5528C36.487 33.104 36.3991 32.6427 36.3104 32.1735C36.5747 32.2791 36.8236 32.3781 37.0506 32.4687C38.8042 33.1677 40.4218 33.6381 42.0364 33.9048C42.1745 34.1764 42.3096 34.446 42.4383 34.714C42.8642 35.6055 43.0218 36.5992 42.8853 37.5798L42.88 37.5934C42.7972 38.1916 42.8233 38.7898 42.9465 39.3629Z" fill="url(#paint0_linear_4023_1255)"/>
</mask>
<g mask="url(#mask0_4023_1255)">
<rect x="62.207" y="22.5785" width="39.9972" height="39.9972" transform="rotate(111.177 62.207 22.5785)" fill="url(#paint1_linear_4023_1255)"/>
</g>
<mask id="mask1_4023_1255" style="mask-type:alpha" maskUnits="userSpaceOnUse" x="61" y="13" width="36" height="41">
<path d="M92.0989 47.223C91.4695 47.0773 90.8155 47.0423 90.1718 47.082C88.6935 47.1716 87.3095 47.4755 86.2365 47.8088C84.9826 48.1972 83.6191 48.7667 82.4127 49.5C81.6306 49.9752 80.9921 50.657 80.5689 51.4688C80.0099 52.5392 79.0111 53.3831 77.6983 53.6969C75.7582 54.1602 73.7025 53.2039 72.7991 51.423C71.8957 49.6421 72.3041 47.69 73.5425 46.4013C74.188 45.7281 74.638 44.8984 74.9543 44.0231C76.1205 40.7888 77.0003 37.1823 77.6689 33.5528C78.15 30.9472 78.7732 27.9158 79.0496 25.4006C79.1021 24.9272 78.5128 24.6724 78.1938 25.0281C75.6971 27.8154 73.3823 31.4198 71.801 34.7139C71.3749 35.6054 71.2169 36.5992 71.3534 37.5799L71.3584 37.5929C71.6861 39.9564 70.3179 42.3215 67.9413 43.1373C65.4613 43.9858 62.6666 42.7653 61.6097 40.366C60.4231 37.6799 61.7293 34.5749 64.4385 33.5253C64.7739 33.3954 65.1134 33.305 65.4545 33.2478C66.466 33.0844 67.4122 32.6654 68.1616 31.9706C70.9924 29.3497 74.3024 25.5395 76.8685 20.3023C77.3016 19.4193 77.5029 18.45 77.5077 17.4669C77.5237 15.1688 79.3548 13.0513 82.1299 13.0997C83.5064 13.1245 84.7771 13.8718 85.516 15.0348C86.8824 17.1794 86.2708 19.4386 84.4889 21.0352C83.7056 21.7394 83.1289 22.6481 82.848 23.6632C81.9528 26.9011 81.4484 30.6356 80.718 34.2216C79.9875 38.0586 79.379 40.751 79.3325 44.4204C79.3195 45.4403 80.2397 46.2111 81.2436 46.0281C82.6147 45.7778 84.0479 45.3012 85.1811 44.8622C86.0342 44.5317 87.1399 44.0023 88.2059 43.2934C88.9421 42.806 89.5523 42.1576 90.1052 41.4678C90.5601 40.9021 91.1894 40.4673 91.9588 40.2591C93.5609 39.822 95.3054 40.5842 96.0715 42.0588C97.0738 43.9887 96.1588 46.3055 94.1887 47.0687C93.4951 47.3374 92.7717 47.3743 92.0976 47.2197L92.0989 47.223Z" fill="black"/>
<path d="M79.3329 44.4211C79.3209 45.379 80.1323 46.1165 81.0628 46.0508C81.6 44.5558 82.3138 43.0959 83.2763 41.5026C84.5066 39.4682 86.5317 36.4111 88.1545 34.7712C88.5742 34.3464 89.0852 33.9912 89.5819 33.6977C90.0785 33.4042 90.525 32.961 90.8311 32.4754C91.6578 31.1589 91.6177 29.3359 90.2925 27.9545C89.918 27.5679 89.4407 27.2922 88.923 27.1445C87.3449 26.6961 86.1189 27.197 85.298 28.0169C84.6229 28.6902 83.9101 29.3337 83.0937 29.826C82.6187 30.1117 82.0223 30.4118 81.3788 30.7113C81.1686 31.8824 80.9553 33.0601 80.7186 34.222C80.7056 34.2905 80.6913 34.3584 80.6783 34.4261C81.7576 33.9918 82.899 33.5487 83.7308 33.2897C84.1153 33.1707 84.4214 33.5434 84.2611 33.9126C83.4828 35.7121 81.7301 38.2366 80.6298 39.8238C80.1859 40.4641 79.8283 41.0109 79.4955 41.5158C79.4037 42.4384 79.3459 43.3916 79.3329 44.4211ZM71.2928 39.3629C72.9025 38.1004 74.8619 36.8971 77.2123 35.8548C77.3738 35.0906 77.5276 34.3224 77.6694 33.5528C77.7523 33.104 77.8401 32.6427 77.9289 32.1735C77.6646 32.2791 77.4156 32.3781 77.1887 32.4687C75.4351 33.1677 73.8175 33.6381 72.2028 33.9048C72.0647 34.1764 71.9297 34.446 71.801 34.714C71.375 35.6055 71.2175 36.5992 71.3539 37.5798L71.3592 37.5934C71.4421 38.1916 71.416 38.7898 71.2928 39.3629Z" fill="url(#paint2_linear_4023_1255)"/>
</mask>
<g mask="url(#mask1_4023_1255)">
<rect width="39.9972" height="39.9972" transform="matrix(0.361246 0.93247 0.93247 -0.361246 52.0322 22.5785)" fill="url(#paint3_linear_4023_1255)"/>
</g>
<mask id="mask2_4023_1255" style="mask-type:alpha" maskUnits="userSpaceOnUse" x="61" y="60" width="36" height="41">
<path d="M92.0989 66.7997C91.4695 66.9454 90.8155 66.9804 90.1718 66.9407C88.6935 66.8511 87.3095 66.5472 86.2365 66.2139C84.9826 65.8255 83.6191 65.256 82.4127 64.5228C81.6306 64.0475 80.9921 63.3657 80.5689 62.5539C80.0099 61.4835 79.0111 60.6396 77.6983 60.3258C75.7582 59.8625 73.7025 60.8188 72.7991 62.5997C71.8957 64.3806 72.3041 66.3327 73.5425 67.6214C74.188 68.2946 74.638 69.1243 74.9543 69.9996C76.1205 73.2339 77.0003 76.8404 77.6689 80.4699C78.15 83.0755 78.7732 86.107 79.0496 88.6221C79.1021 89.0956 78.5128 89.3504 78.1938 88.9946C75.6971 86.2073 73.3823 82.6029 71.801 79.3089C71.3749 78.4173 71.2169 77.4235 71.3534 76.4428L71.3584 76.4298C71.6861 74.0663 70.3179 71.7012 67.9413 70.8854C65.4613 70.037 62.6666 71.2574 61.6097 73.6567C60.4231 76.3428 61.7293 79.4478 64.4385 80.4974C64.7739 80.6273 65.1134 80.7177 65.4545 80.7749C66.466 80.9383 67.4122 81.3573 68.1616 82.0521C70.9924 84.673 74.3024 88.4832 76.8685 93.7204C77.3016 94.6035 77.5029 95.5727 77.5077 96.5558C77.5237 98.8539 79.3548 100.971 82.1299 100.923C83.5064 100.898 84.7771 100.151 85.516 98.9879C86.8824 96.8433 86.2708 94.5841 84.4889 92.9875C83.7056 92.2833 83.1289 91.3746 82.848 90.3595C81.9528 87.1216 81.4484 83.3872 80.718 79.8011C79.9875 75.9641 79.379 73.2717 79.3325 69.6023C79.3195 68.5824 80.2397 67.8116 81.2436 67.9946C82.6147 68.2449 84.0479 68.7215 85.1811 69.1605C86.0342 69.491 87.1399 70.0204 88.2059 70.7293C88.9421 71.2167 89.5523 71.8651 90.1052 72.5549C90.5601 73.1206 91.1894 73.5554 91.9588 73.7636C93.5609 74.2007 95.3054 73.4385 96.0715 71.9639C97.0738 70.0341 96.1588 67.7172 94.1887 66.954C93.4951 66.6853 92.7717 66.6484 92.0976 66.803L92.0989 66.7997Z" fill="black"/>
<path d="M79.3329 69.6016C79.3209 68.6437 80.1323 67.9062 81.0628 67.9719C81.6 69.4669 82.3138 70.9268 83.2763 72.5201C84.5066 74.5545 86.5317 77.6116 88.1545 79.2515C88.5742 79.6763 89.0852 80.0315 89.5819 80.325C90.0785 80.6186 90.525 81.0618 90.8311 81.5473C91.6578 82.8638 91.6177 84.6868 90.2925 86.0682C89.918 86.4548 89.4407 86.7305 88.923 86.8782C87.3449 87.3266 86.1189 86.8257 85.298 86.0058C84.6229 85.3325 83.9101 84.689 83.0937 84.1967C82.6187 83.911 82.0223 83.6109 81.3788 83.3114C81.1686 82.1403 80.9553 80.9626 80.7186 79.8007C80.7056 79.7322 80.6913 79.6643 80.6783 79.5966C81.7576 80.0309 82.899 80.474 83.7308 80.733C84.1153 80.852 84.4214 80.4793 84.2611 80.1101C83.4828 78.3106 81.7301 75.7861 80.6298 74.1989C80.1859 73.5586 79.8283 73.0118 79.4955 72.5069C79.4037 71.5843 79.3459 70.6311 79.3329 69.6016ZM71.2928 74.6598C72.9025 75.9223 74.8619 77.1256 77.2123 78.1679C77.3738 78.9321 77.5276 79.7003 77.6694 80.4699C77.7523 80.9187 77.8401 81.38 77.9289 81.8492C77.6646 81.7436 77.4156 81.6446 77.1887 81.5541C75.4351 80.855 73.8175 80.3846 72.2028 80.1179C72.0647 79.8463 71.9297 79.5767 71.801 79.3087C71.375 78.4172 71.2175 77.4235 71.3539 76.4429L71.3592 76.4293C71.4421 75.8311 71.416 75.233 71.2928 74.6598Z" fill="url(#paint4_linear_4023_1255)"/>
</mask>
<g mask="url(#mask2_4023_1255)">
<rect x="52.0322" y="91.4442" width="39.9972" height="39.9972" transform="rotate(-68.8232 52.0322 91.4442)" fill="url(#paint5_linear_4023_1255)"/>
</g>
<mask id="mask3_4023_1255" style="mask-type:alpha" maskUnits="userSpaceOnUse" x="17" y="60" width="37" height="41">
<path d="M22.1404 66.7997C22.7698 66.9454 23.4238 66.9804 24.0675 66.9407C25.5458 66.8511 26.9297 66.5472 28.0028 66.2139C29.2567 65.8255 30.6202 65.256 31.8266 64.5228C32.6087 64.0475 33.2471 63.3657 33.6704 62.5539C34.2294 61.4835 35.2282 60.6396 36.5409 60.3258C38.4811 59.8625 40.5368 60.8188 41.4402 62.5997C42.3436 64.3806 41.9352 66.3327 40.6967 67.6214C40.0513 68.2946 39.6012 69.1243 39.285 69.9996C38.1187 73.2339 37.2389 76.8404 36.5703 80.4699C36.0893 83.0755 35.4661 86.107 35.1896 88.6221C35.1371 89.0956 35.7264 89.3504 36.0455 88.9946C38.5421 86.2073 40.857 82.6029 42.4383 79.3089C42.8644 78.4173 43.0224 77.4235 42.8859 76.4428L42.8808 76.4298C42.5532 74.0663 43.9214 71.7012 46.2979 70.8854C48.778 70.037 51.5727 71.2574 52.6295 73.6567C53.8162 76.3428 52.51 79.4478 49.8007 80.4974C49.4654 80.6273 49.1259 80.7177 48.7848 80.7749C47.7733 80.9383 46.8271 81.3573 46.0776 82.0521C43.2469 84.673 39.9369 88.4832 37.3707 93.7204C36.9376 94.6035 36.7364 95.5727 36.7315 96.5558C36.7155 98.8539 34.8844 100.971 32.1094 100.923C30.7329 100.898 29.4622 100.151 28.7232 98.9879C27.3569 96.8433 27.9684 94.5841 29.7504 92.9875C30.5337 92.2833 31.1104 91.3746 31.3912 90.3595C32.2864 87.1216 32.7908 83.3872 33.5212 79.8011C34.2518 75.9641 34.8602 73.2717 34.9067 69.6023C34.9198 68.5824 33.9995 67.8116 32.9956 67.9946C31.6245 68.2449 30.1913 68.7215 29.0582 69.1605C28.205 69.491 27.0994 70.0204 26.0333 70.7293C25.2971 71.2167 24.687 71.8651 24.134 72.5549C23.6791 73.1206 23.0499 73.5554 22.2804 73.7636C20.6784 74.2007 18.9338 73.4385 18.1678 71.9639C17.1655 70.0341 18.0805 67.7172 20.0505 66.954C20.7441 66.6853 21.4676 66.6484 22.1417 66.803L22.1404 66.7997Z" fill="black"/>
<path d="M34.9064 69.6016C34.9183 68.6437 34.1069 67.9062 33.1764 67.9719C32.6393 69.4669 31.9254 70.9268 30.9629 72.5201C29.7327 74.5545 27.7076 77.6116 26.0847 79.2515C25.6651 79.6763 25.1541 80.0315 24.6574 80.325C24.1608 80.6186 23.7143 81.0618 23.4081 81.5473C22.5815 82.8638 22.6216 84.6868 23.9468 86.0682C24.3212 86.4548 24.7986 86.7305 25.3163 86.8782C26.8944 87.3266 28.1204 86.8257 28.9412 86.0058C29.6164 85.3325 30.3292 84.689 31.1456 84.1967C31.6206 83.911 32.2169 83.6109 32.8605 83.3114C33.0707 82.1403 33.284 80.9626 33.5206 79.8007C33.5337 79.7322 33.548 79.6643 33.5609 79.5966C32.4817 80.0309 31.3403 80.474 30.5085 80.733C30.1239 80.852 29.8178 80.4793 29.9781 80.1101C30.7565 78.3106 32.5091 75.7861 33.6094 74.1989C34.0534 73.5586 34.411 73.0118 34.7438 72.5069C34.8356 71.5843 34.8933 70.6311 34.9064 69.6016ZM42.9465 74.6598C41.3368 75.9223 39.3774 77.1256 37.0269 78.1679C36.8655 78.9321 36.7116 79.7003 36.5699 80.4699C36.487 80.9187 36.3991 81.38 36.3104 81.8492C36.5747 81.7436 36.8236 81.6446 37.0506 81.5541C38.8042 80.855 40.4218 80.3846 42.0364 80.1179C42.1745 79.8463 42.3096 79.5767 42.4383 79.3087C42.8642 78.4172 43.0218 77.4235 42.8853 76.4429L42.88 76.4293C42.7972 75.8311 42.8233 75.233 42.9465 74.6598Z" fill="url(#paint6_linear_4023_1255)"/>
</mask>
<g mask="url(#mask3_4023_1255)">
<rect width="39.9972" height="39.9972" transform="matrix(-0.361246 -0.93247 -0.93247 0.361246 62.207 91.4442)" fill="url(#paint7_linear_4023_1255)"/>
</g>
<circle cx="56.9107" cy="57.1585" r="8.17148" fill="#FF79A8"/>
<path d="M0.571289 56.5134H113.252V57.8037H0.571289V56.5134Z" fill="url(#paint8_radial_4023_1255)"/>
<path d="M56.2664 113.499L56.2663 0.818359L57.5566 0.818359L57.5566 113.499H56.2664Z" fill="url(#paint9_radial_4023_1255)"/>
<defs>
<linearGradient id="paint0_linear_4023_1255" x1="22.505" y1="32.7936" x2="37.8965" y2="46.1607" gradientUnits="userSpaceOnUse">
<stop stop-opacity="0.7"/>
<stop offset="1" stop-opacity="0.3"/>
</linearGradient>
<linearGradient id="paint1_linear_4023_1255" x1="82.2056" y1="32.2729" x2="82.2056" y2="53.2419" gradientUnits="userSpaceOnUse">
<stop stop-color="#FF78A7"/>
<stop offset="1" stop-color="#BC71C9"/>
</linearGradient>
<linearGradient id="paint2_linear_4023_1255" x1="91.7343" y1="32.7936" x2="76.3427" y2="46.1607" gradientUnits="userSpaceOnUse">
<stop stop-opacity="0.7"/>
<stop offset="1" stop-opacity="0.3"/>
</linearGradient>
<linearGradient id="paint3_linear_4023_1255" x1="19.9986" y1="9.6944" x2="19.9986" y2="30.6635" gradientUnits="userSpaceOnUse">
<stop stop-color="#FF78A7"/>
<stop offset="1" stop-color="#BC71C9"/>
</linearGradient>
<linearGradient id="paint4_linear_4023_1255" x1="91.7343" y1="81.2291" x2="76.3427" y2="67.862" gradientUnits="userSpaceOnUse">
<stop stop-opacity="0.7"/>
<stop offset="1" stop-opacity="0.3"/>
</linearGradient>
<linearGradient id="paint5_linear_4023_1255" x1="72.0308" y1="101.139" x2="72.0308" y2="122.108" gradientUnits="userSpaceOnUse">
<stop stop-color="#FF78A7"/>
<stop offset="1" stop-color="#BC71C9"/>
</linearGradient>
<linearGradient id="paint6_linear_4023_1255" x1="22.505" y1="81.2291" x2="37.8965" y2="67.862" gradientUnits="userSpaceOnUse">
<stop stop-opacity="0.7"/>
<stop offset="1" stop-opacity="0.3"/>
</linearGradient>
<linearGradient id="paint7_linear_4023_1255" x1="19.9986" y1="9.6944" x2="19.9986" y2="30.6635" gradientUnits="userSpaceOnUse">
<stop stop-color="#FF78A7"/>
<stop offset="1" stop-color="#BC71C9"/>
</linearGradient>
<radialGradient id="paint8_radial_4023_1255" cx="0" cy="0" r="1" gradientUnits="userSpaceOnUse" gradientTransform="translate(56.9115 57.1585) rotate(90) scale(56.3402)">
<stop stop-color="#FF79A8"/>
<stop offset="1" stop-color="#FF79A8" stop-opacity="0"/>
</radialGradient>
<radialGradient id="paint9_radial_4023_1255" cx="0" cy="0" r="1" gradientUnits="userSpaceOnUse" gradientTransform="translate(56.9115 57.1585) rotate(90) scale(56.3402)">
<stop stop-color="#FF79A8"/>
<stop offset="1" stop-color="#FF79A8" stop-opacity="0"/>
</radialGradient>
</defs>
</svg>
